<svg xmlns="http://www.w3.org/2000/svg" width="24" height="24" fill="none" viewBox="0 0 24 24">
    <path fill="url(#paint0_linear)" fill-rule="evenodd" d="M4.544 21.403C6.59 23.03 9.182 24 12 24c6.627 0 12-5.372 12-12S18.627 0 12 0C9.657 0 7.472.671 5.625 1.832c5.946 2.034 13.79 5.541 15.01 8.284-.292.437-1.823.91-2.552 1.093-.303.608-1.202 2.478-2.368 5.102 1.093-.364 1.822-1.275 2.004-2.004.547.364 2.369 2.004 3.28 3.644-4.478 2.82-13.03 3.375-16.455 3.452zm-.696-.596c1.055-1.736 1.663-3.774 1.663-5.953 0-1.28-.21-2.511-.596-3.661l6.791-.348L4.241 9.6c-.68-1.318-1.608-2.489-2.722-3.448-.273.487-.512.995-.715 1.52C2.769 9.498 3.999 12.106 3.999 15c0 1.708-.429 3.317-1.184 4.724.322.382.667.744 1.033 1.083zM2.8 4.296c4.36 1.298 9.445 3.203 14.738 5.455-2.805-2.266-8.805-4.595-13.989-6.27-.262.26-.512.532-.749.815z" clip-rule="evenodd"/>
    <defs>
        <linearGradient id="paint0_linear" x1=".589" x2="24.581" y1="0" y2="23.404" gradientUnits="userSpaceOnUse">
            <stop stop-color="#7AFF9F"/>
            <stop offset="1" stop-color="#00BD88"/>
        </linearGradient>
    </defs>
</svg>
